<?xml version="1.0" encoding="UTF-8" standalone="no"?>
<svg
   xmlns:dc="http://purl.org/dc/elements/1.1/"
   xmlns:cc="http://creativecommons.org/ns#"
   xmlns:rdf="http://www.w3.org/1999/02/22-rdf-syntax-ns#"
   xmlns:svg="http://www.w3.org/2000/svg"
   xmlns="http://www.w3.org/2000/svg"
   xmlns:sodipodi="http://sodipodi.sourceforge.net/DTD/sodipodi-0.dtd"
   xmlns:inkscape="http://www.inkscape.org/namespaces/inkscape"
   version="1.0"
   width="130pt"
   height="225pt"
   viewBox="0 0 173.33332 300"
   preserveAspectRatio="xMidYMid meet"
   id="svg68"
   sodipodi:docname="cat.svg"
   inkscape:version="1.0.2-2 (e86c870879, 2021-01-15)">
  <defs
     id="defs72" />
  <sodipodi:namedview
     pagecolor="#ffffff"
     bordercolor="#666666"
     borderopacity="1"
     objecttolerance="10"
     gridtolerance="10"
     guidetolerance="10"
     inkscape:pageopacity="0"
     inkscape:pageshadow="2"
     inkscape:window-width="1918"
     inkscape:window-height="1008"
     id="namedview70"
     showgrid="false"
     inkscape:zoom="1.3331683"
     inkscape:cx="481.64097"
     inkscape:cy="206.24657"
     inkscape:window-x="0"
     inkscape:window-y="0"
     inkscape:window-maximized="0"
     inkscape:current-layer="svg68"
     inkscape:document-rotation="0"
     scale-x="1"
     viewbox-width="197.4" />
  <metadata
     id="metadata42">
Created by potrace 1.16, written by Peter Selinger 2001-2019
<rdf:RDF>
  <cc:Work
     rdf:about="">
    <dc:format>image/svg+xml</dc:format>
    <dc:type
       rdf:resource="http://purl.org/dc/dcmitype/StillImage" />
    <dc:title></dc:title>
  </cc:Work>
</rdf:RDF>
</metadata>
  <g
     transform="matrix(0.02770526,0,0,-0.02770526,-103.38177,317.75037)"
     fill="#000000"
     stroke="none"
     id="g66">
    <path
       d="m 4725,11458 c -44,-26 -96,-115 -161,-276 -85,-211 -106,-357 -105,-737 0,-391 -6,-473 -77,-935 -23,-154 -26,-204 -26,-420 0,-232 1,-251 27,-357 32,-132 69,-235 128,-358 42,-86 44,-94 44,-180 0,-87 -2,-93 -48,-189 -49,-100 -55,-115 -100,-239 -48,-131 -109,-384 -142,-592 -55,-343 -106,-530 -274,-1003 -84,-235 -151,-458 -176,-590 -17,-90 -17,-93 1,-115 19,-22 19,-22 -2,-4 l -21,17 -21,-172 c -38,-295 -44,-412 -39,-668 5,-269 21,-391 77,-591 92,-325 265,-628 463,-809 49,-46 49,-46 38,-85 -25,-92 -3,-178 66,-255 98,-110 301,-167 561,-158 l 133,5 17,-29 c 17,-30 58,-59 155,-115 98,-55 171,-68 372,-67 28,0 100,0 160,0 106,-1 113,0 180,33 82,41 154,111 191,188 15,29 28,53 30,53 2,0 15,-18 30,-41 42,-66 107,-124 175,-157 81,-37 139,-50 262,-55 88,-4 96,-3 85,12 -7,9 -1,6 13,-6 21,-19 37,-23 97,-23 100,0 167,16 242,59 36,21 86,45 112,55 50,18 126,79 146,117 13,24 14,24 190,24 175,1 178,1 261,33 46,18 120,51 163,74 l 78,40 188,-5 c 207,-5 330,-23 464,-68 97,-31 161,-68 178,-99 14,-26 5,-73 -18,-93 -20,-17 -113,-53 -190,-73 -172,-46 -254,-141 -254,-299 -1,-107 32,-185 106,-251 57,-52 93,-72 191,-105 63,-22 87,-24 240,-24 157,0 177,2 265,28 121,36 207,74 244,106 16,14 25,20 21,12 -13,-22 49,18 124,79 64,54 198,217 186,228 -3,3 3,15 14,26 10,12 30,55 44,96 104,311 22,625 -233,881 -136,138 -281,229 -480,303 -158,58 -376,107 -576,128 l -111,11 30,76 c 67,172 118,389 137,581 15,158 13,516 -5,684 -49,466 -142,767 -473,1541 -124,292 -145,358 -187,605 -26,150 -65,321 -106,465 -45,158 -64,216 -111,347 l -49,136 54,91 c 195,323 231,687 122,1226 -67,327 -76,431 -79,840 -2,342 -5,392 -25,500 -39,216 -74,317 -145,423 -52,78 -97,112 -148,112 -65,0 -237,-75 -353,-153 -107,-73 -263,-242 -366,-397 l -14,-21 -185,21 c -152,18 -219,21 -380,17 -107,-3 -222,-10 -255,-16 -146,-28 -165,-33 -160,-40 2,-5 -6,-6 -18,-4 -12,2 -48,-5 -79,-16 l -58,-20 -33,42 c -19,23 -69,90 -111,149 -42,59 -100,133 -129,164 -72,79 -193,167 -301,219 -146,69 -235,89 -281,63 z m 177,-162 c 184,-85 391,-296 498,-506 36,-71 89,-110 150,-110 15,0 75,11 132,24 212,50 325,61 593,60 202,-1 273,-5 370,-21 85,-14 124,-17 133,-10 7,6 46,54 85,106 107,143 180,224 265,297 92,78 223,147 284,148 37,1 44,-3 65,-33 13,-19 31,-56 40,-82 l 17,-48 26,22 25,22 -23,-26 -23,-27 20,-68 c 18,-65 42,-177 55,-269 4,-22 11,-175 16,-340 11,-355 27,-534 81,-910 61,-421 63,-590 8,-810 -69,-270 -231,-466 -534,-643 -95,-56 -109,-82 -43,-82 90,0 243,58 357,134 60,41 54,47 107,-103 70,-197 126,-416 170,-666 50,-286 116,-484 329,-985 272,-642 326,-895 326,-1535 0,-457 -61,-792 -195,-1080 -93,-199 -239,-382 -322,-404 -41,-11 -53,-9 -142,23 -51,19 -171,22 -231,6 -52,-14 -45,-23 29,-39 120,-25 231,-104 300,-211 31,-48 42,-86 18,-62 -23,23 -48,13 -64,-25 -21,-50 -52,-83 -79,-83 -27,0 -72,34 -80,60 -11,33 -39,23 -67,-25 -29,-48 -39,-51 -123,-46 -74,5 -121,54 -164,173 -47,127 -50,266 -11,508 10,63 33,207 50,320 18,113 61,378 96,589 80,479 131,887 114,914 -6,11 -7,16 -1,13 34,-21 57,714 31,999 -12,127 -20,155 -45,155 -22,0 -33,-52 -40,-185 -30,-638 -92,-1186 -220,-1940 -59,-352 -155,-1031 -162,-1145 -5,-103 4,-159 51,-285 32,-88 35,-185 7,-231 -10,-17 -36,-41 -56,-54 -48,-30 -66,-20 -82,45 -13,53 -37,85 -51,70 -5,-6 -14,-35 -21,-65 -6,-31 -20,-70 -31,-88 -19,-31 -71,-62 -104,-62 -26,0 -46,30 -46,71 0,45 -21,94 -46,103 -24,9 -33,-1 -41,-47 -4,-27 -17,-52 -35,-71 -27,-27 -33,-28 -91,-24 -134,11 -226,92 -273,238 -9,30 -26,66 -38,80 -18,21 -18,22 -2,10 18,-14 19,-13 13,19 -7,36 -13,105 -22,252 -2,47 -9,423 -15,835 -6,412 -15,873 -20,1024 -5,151 -6,426 -3,611 l 6,337 -22,7 c -13,4 -26,3 -31,-2 -7,-8 -41,-228 -60,-401 -24,-211 -30,-724 -18,-1502 8,-529 8,-810 1,-885 -7,-78 -7,-114 1,-124 8,-11 8,-13 -1,-8 -7,5 -13,-12 -18,-56 -14,-125 -36,-228 -59,-281 -46,-104 -159,-196 -240,-196 -45,0 -91,50 -82,89 3,14 9,50 12,79 6,49 6,52 -16,52 -34,0 -72,-49 -100,-131 -21,-59 -31,-76 -51,-83 -34,-11 -91,0 -121,23 -21,17 -23,27 -23,105 0,71 -3,86 -16,86 -23,0 -65,-49 -90,-104 l -22,-50 -23,27 c -30,35 -47,98 -38,144 4,21 21,74 38,118 29,75 30,88 31,220 v 140 l -72,270 c -107,404 -186,730 -244,1005 -98,466 -163,851 -199,1170 -14,130 -40,565 -40,677 0,50 -5,104 -11,120 l -11,28 -17,-22 c -43,-52 -66,-309 -58,-651 7,-312 40,-622 92,-862 8,-36 19,-94 25,-130 6,-36 22,-114 36,-175 14,-60 32,-141 40,-180 8,-38 30,-135 49,-215 19,-80 48,-210 65,-290 30,-141 96,-389 159,-596 64,-211 65,-335 6,-499 -19,-53 -35,-104 -35,-114 0,-20 -35,-31 -102,-31 -60,0 -109,25 -160,82 -44,49 -49,52 -63,37 -9,-9 -19,-36 -22,-60 -7,-53 -15,-59 -60,-49 -39,9 -78,41 -99,83 -12,21 -22,27 -48,27 -39,0 -46,12 -46,73 0,36 6,46 48,87 38,36 65,52 130,73 44,15 95,27 111,27 44,0 46,17 4,31 -49,17 -177,17 -226,0 -36,-12 -41,-11 -80,15 -70,46 -200,184 -261,277 -145,220 -238,505 -277,847 -17,148 -17,585 0,755 35,356 84,550 261,1050 127,356 164,492 210,775 68,408 90,507 162,730 36,110 106,263 138,301 l 22,26 105,-53 c 123,-63 183,-72 183,-30 0,17 -14,34 -48,60 -79,57 -193,186 -245,274 -89,152 -135,295 -168,520 -18,124 -20,176 -16,356 4,185 9,237 42,421 l 37,210 8,475 c 7,431 9,485 29,583 28,135 69,264 115,355 48,95 53,97 158,48 z M 8624,3634 c 221,-24 427,-79 569,-150 148,-75 297,-197 388,-317 110,-146 144,-253 136,-422 -9,-193 -81,-353 -213,-474 -78,-71 -165,-118 -310,-168 -106,-36 -114,-37 -254,-37 -126,0 -153,2 -204,22 -120,44 -186,110 -194,192 -6,65 2,93 40,135 42,49 71,62 183,85 130,26 195,69 229,152 59,140 -41,276 -263,358 -109,40 -229,58 -467,72 l -204,12 -28,60 -28,60 86,85 c 101,102 193,214 241,294 l 34,57 h 59 c 32,0 122,-7 200,-16 z"
       id="path44" />
    <path
       d="m 7121,10942 c -75,-75 -149,-190 -158,-246 -7,-43 16,-76 53,-76 56,0 154,152 188,293 30,118 13,124 -83,29 z"
       id="path46" />
    <path
       d="m 4986,10942 c -11,-19 15,-100 75,-230 16,-35 29,-67 29,-72 0,-20 53,-70 75,-70 37,0 48,23 43,92 -7,107 -55,188 -152,259 -39,29 -61,36 -70,21 z"
       id="path48" />
    <path
       d="m 5260,10052 c -191,-63 -320,-253 -320,-469 0,-67 18,-110 64,-157 71,-70 181,-112 326,-122 111,-9 210,9 301,52 136,65 164,102 161,215 -2,84 -30,206 -61,267 -35,69 -126,159 -198,194 -82,40 -188,48 -273,20 z m 248,-141 c 57,-36 109,-102 136,-171 21,-54 38,-203 27,-234 -19,-49 -176,-106 -291,-106 -116,0 -268,58 -307,116 -20,31 -13,154 12,226 24,67 97,145 170,180 52,25 69,29 130,26 60,-3 79,-8 123,-37 z"
       id="path50" />
    <path
       d="m 5328,9875 c -74,-50 -100,-193 -53,-293 21,-44 32,-56 71,-74 92,-40 162,2 199,118 55,177 -86,338 -217,249 z"
       id="path52" />
    <path
       d="m 6759,10057 c -187,-53 -317,-262 -307,-493 3,-73 6,-87 34,-125 138,-190 625,-182 765,12 10,15 26,55 35,89 13,51 14,73 4,130 -25,148 -132,300 -254,360 -74,37 -200,49 -277,27 z m 234,-137 c 115,-58 187,-178 187,-314 0,-64 -3,-77 -27,-108 -31,-40 -79,-62 -178,-83 -126,-27 -238,-16 -334,33 -97,48 -109,106 -57,260 40,116 85,175 166,216 48,24 64,27 125,24 49,-3 84,-11 118,-28 z"
       id="path54" />
    <path
       d="m 6775,9888 c -96,-53 -123,-200 -59,-318 43,-79 98,-98 180,-61 114,52 122,273 14,365 -34,28 -97,35 -135,14 z"
       id="path56" />
    <path
       d="m 6038,9401 c -72,-15 -110,-59 -93,-111 4,-12 29,-46 56,-76 53,-58 58,-78 33,-130 -29,-60 -189,-134 -293,-134 -63,0 -155,27 -200,60 -38,26 -76,26 -95,-2 -27,-38 -20,-68 28,-113 36,-35 58,-46 127,-65 143,-38 158,-52 245,-220 92,-181 165,-243 285,-242 65,0 137,32 186,84 18,18 52,76 77,129 56,121 113,208 140,214 162,35 196,48 239,93 48,50 34,122 -24,122 -9,0 -51,-16 -93,-36 -70,-33 -82,-36 -150,-32 -67,3 -86,9 -182,58 -163,84 -182,130 -89,225 45,46 55,63 55,91 0,37 -25,69 -66,84 -29,11 -130,11 -186,1 z m 197,-509 c 39,-23 84,-46 102,-52 l 32,-12 -23,-61 c -43,-113 -102,-221 -137,-246 -20,-15 -51,-26 -81,-29 -45,-4 -50,-2 -84,34 -29,30 -174,281 -174,300 0,2 5,4 10,4 18,0 131,56 190,94 48,30 58,33 75,22 11,-7 52,-31 90,-54 z"
       id="path58" />
    <path
       d="m 6036,2199 c -37,-29 -66,-90 -66,-139 0,-34 -4,-42 -25,-52 -22,-10 -29,-9 -47,10 -22,22 -21,36 9,121 4,11 -3,8 -23,-9 l -29,-25 29,32 c 24,27 27,35 16,48 -30,36 -111,-3 -141,-69 -22,-48 -26,-121 -6,-110 6,4 4,-2 -7,-14 -10,-12 -22,-19 -27,-16 -5,2 -77,0 -161,-5 -111,-7 -174,-17 -229,-34 -178,-56 -306,-170 -325,-288 -9,-55 29,-101 94,-115 69,-16 93,-32 182,-123 92,-95 190,-174 293,-236 65,-39 83,-56 105,-98 58,-109 100,-123 170,-57 31,30 48,39 64,35 59,-12 229,-25 345,-25 497,1 841,183 935,495 29,99 29,98 118,92 148,-10 245,-70 297,-184 74,-160 19,-319 -140,-407 -82,-45 -132,-61 -301,-95 -239,-49 -340,-118 -341,-235 0,-63 22,-72 69,-28 67,63 169,104 338,136 406,76 612,299 544,589 -34,147 -115,253 -243,320 -80,41 -117,53 -236,73 -110,18 -132,29 -191,98 -54,63 -54,64 17,126 26,23 47,48 47,55 0,22 -41,45 -81,45 -35,0 -116,-36 -152,-68 -9,-8 -19,-13 -21,-11 -10,10 29,71 53,84 15,7 33,25 40,39 13,23 12,28 -4,46 -20,23 -76,27 -122,9 -37,-14 -79,-54 -110,-106 l -25,-43 -166,-1 c -100,0 -221,-7 -302,-18 -74,-10 -140,-16 -147,-14 -21,8 -24,40 -8,84 26,70 29,90 14,100 -25,15 -76,10 -103,-12 z m 767,-288 c 128,-33 180,-72 224,-167 79,-174 -30,-382 -247,-467 -172,-67 -341,-97 -543,-97 -214,0 -402,40 -583,125 -142,66 -211,121 -367,292 -64,71 -70,96 -33,140 61,73 207,119 406,128 212,9 392,24 560,45 213,27 237,28 381,24 80,-2 153,-11 202,-23 z"
       id="path60" />
    <path
       d="m 5508,1722 c -37,-8 -26,-63 21,-106 l 21,-19 -25,-29 c -14,-17 -25,-42 -25,-59 0,-35 21,-38 90,-13 45,16 46,16 84,-10 46,-31 82,-34 91,-7 7,23 -10,69 -35,96 -19,21 -19,21 8,55 36,45 45,69 31,86 -15,18 -53,9 -101,-23 l -37,-25 -33,25 c -35,26 -63,35 -90,29 z"
       id="path62" />
    <path
       d="m 5963,1549 c -41,-12 -42,-31 -3,-59 30,-21 40,-59 22,-87 -11,-18 -55,-32 -84,-26 -28,5 -68,-11 -68,-28 0,-11 38,-45 74,-66 55,-32 154,-5 191,51 47,71 18,181 -56,210 -22,9 -40,16 -42,15 -1,0 -17,-5 -34,-10 z"
       id="path64" />
  </g>
  <path
     fill="#a0a0a0"
	  class = "catcolor"
     style="stroke:none;stroke-width:0.44084"
     d="m 47.322976,242.93602 c -0.446035,-0.35107 -0.802091,-1.46172 -0.927716,-2.89386 -0.11213,-1.27823 -0.330541,-2.45078 -0.485366,-2.60561 -0.396483,-0.39648 -2.013706,1.15566 -2.811409,2.69824 -0.638334,1.23439 -0.700277,1.25709 -1.277393,0.46781 -0.855438,-1.16988 -0.753362,-3.62288 0.275156,-6.61231 1.699067,-4.93844 1.352164,-7.93081 -2.841763,-24.51302 -7.474524,-29.55318 -10.609477,-48.19836 -11.531215,-68.58203 -0.307695,-6.80449 -0.652914,-8.46545 -1.495768,-7.19663 -1.018601,1.5334 -1.394514,4.17602 -1.630468,11.46191 -0.457372,14.12312 0.763906,24.10063 5.632966,46.01975 2.919495,13.14275 4.433053,19.29684 6.782586,27.57782 1.892691,6.67086 2.002567,9.81128 0.518369,14.81604 -1.004394,3.38684 -1.086164,3.50674 -2.485635,3.64475 -2.171152,0.21408 -3.374961,-0.226 -5.248594,-1.91872 -1.839415,-1.66178 -2.303268,-1.53449 -2.857156,0.78412 -0.389365,1.62992 -1.404951,1.53752 -3.123015,-0.28417 -0.776251,-0.82306 -1.791572,-1.5697 -2.256265,-1.6592 -0.633667,-0.12213 -0.844901,-0.5348 -0.844901,-1.65101 0,-1.96815 2.160672,-3.73309 5.68747,-4.64587 1.430867,-0.37033 2.714586,-0.78631 2.85271,-0.92446 0.700989,-0.70097 -1.450592,-1.10993 -5.013439,-0.95287 l -3.967584,0.17489 -3.52674,-3.57542 C 11.671054,217.41933 8.791072,211.81789 6.6088308,202.84633 3.923558,191.80674 4.2395617,173.16385 7.321353,160.81043 c 0.4838981,-1.9397 2.744993,-9.08136 5.024659,-15.87033 3.162403,-9.41781 4.415901,-13.85872 5.288403,-18.73581 1.934589,-10.81389 2.882073,-15.51403 3.821338,-18.95622 1.109205,-4.06499 3.642506,-10.448992 4.685859,-11.808529 l 0.773493,-1.00789 2.952044,1.338522 c 3.259862,1.478088 5.17562,1.725848 5.17562,0.669335 0,-0.368056 -1.55075,-2.203065 -3.446111,-4.077793 -4.854861,-4.802029 -7.20377,-9.385154 -8.976958,-17.515567 -0.972276,-4.458079 -0.753444,-17.469253 0.404083,-24.025913 0.774492,-4.386984 1.058792,-8.43174 1.394381,-19.83791 0.443679,-15.079928 0.599773,-16.271649 2.9526,-22.5420498 0.603558,-1.6085054 1.471651,-3.2632718 1.929096,-3.6772546 0.790283,-0.7151973 0.985402,-0.6719436 3.916215,0.8681568 3.947906,2.0745675 8.599064,6.6708956 11.637079,11.4998986 3.340263,5.309438 3.552035,5.386789 10.847909,3.962273 5.102314,-0.996226 7.018486,-1.149304 14.327379,-1.144579 4.640518,0.003 9.627577,0.20427 11.08236,0.447264 1.454786,0.242996 2.79013,0.442958 2.967452,0.444363 0.17732,0.0014 1.783337,-1.832453 3.568946,-4.07524 4.110684,-5.163179 7.961055,-8.7344759 11.042354,-10.2420131 3.345206,-1.6366614 4.208906,-1.41127 5.610606,1.4641469 2.10327,4.3146592 3.0127,9.7082312 3.48708,20.6809922 0.47583,11.005938 0.89651,15.624652 2.29884,25.23785 0.59908,4.106797 0.9449,8.756446 0.96724,13.004853 0.0303,5.757207 -0.0986,7.040355 -0.99631,9.918956 -2.10096,6.737052 -5.58379,11.124041 -12.471881,15.709628 -5.042717,3.357068 -5.579085,4.397109 -2.036738,3.949285 1.860627,-0.235218 5.496469,-1.720381 10.095549,-4.123805 0.75128,-0.392608 4.30993,12.17071 6.33855,22.37734 1.52653,7.68045 3.09485,12.40483 8.49516,25.59046 7.96178,19.43991 8.8629,23.25742 9.21215,39.02704 0.31241,14.10472 -0.37043,20.5991 -3.03243,28.84111 -2.05539,6.36381 -6.78181,13.98128 -9.8525,15.87908 -1.46243,0.90383 -1.60663,0.91285 -3.9059,0.24445 -3.39997,-0.98842 -8.64394,-0.85369 -8.64394,0.22207 0,0.20482 0.84201,0.59915 1.87111,0.87625 1.02909,0.27711 2.57546,0.86317 3.43633,1.30237 1.9473,0.99344 5.66251,4.93093 4.89423,5.18702 -0.30134,0.10049 -1.03625,0.95626 -1.63314,1.90182 -1.26288,2.00053 -1.99964,2.14261 -3.19967,0.61705 -1.12788,-1.4339 -1.5771,-1.38998 -2.75892,0.26974 -0.88827,1.24748 -1.14076,1.35009 -2.78527,1.1319 -2.26322,-0.30026 -3.82749,-2.03878 -4.898649,-5.44427 -1.223922,-3.89116 -0.70464,-9.93948 2.586179,-30.12263 4.85917,-29.80228 5.77987,-38.91592 5.45557,-54.00323 -0.11986,-5.57665 -0.36385,-10.58572 -0.54216,-11.13126 -0.33357,-1.02044 -1.28643,-1.32435 -1.75834,-0.56079 -0.14654,0.23712 -0.55557,4.84944 -0.90897,10.2496 -1.09788,16.77687 -2.18938,25.94121 -5.711128,47.95133 -4.656964,29.10488 -5.157964,35.0132 -3.379571,39.85505 1.404681,3.82435 1.171185,6.14225 -0.768769,7.63172 -1.164169,0.89381 -1.635328,0.64782 -2.37737,-1.24124 -0.864729,-2.20138 -1.583945,-2.06755 -2.322002,0.43211 -1.231736,4.17161 -4.596524,5.1988 -4.596524,1.40318 0,-1.06434 -1.601009,-2.82642 -2.220298,-2.44369 -0.233608,0.14438 -0.424761,0.6365 -0.424761,1.0936 0,0.4571 -0.463408,1.36985 -1.029809,2.02831 -1.000872,1.1636 -1.089808,1.18214 -3.164904,0.65961 -3.08017,-0.7756 -4.42355,-1.92677 -5.928665,-5.08047 -1.244497,-2.60762 -1.359297,-3.28927 -1.759696,-10.44881 -0.527085,-9.42479 -1.495691,-64.42997 -1.279324,-72.6498 0.153603,-5.83504 0.133923,-5.98844 -0.784876,-6.11946 -0.837374,-0.11941 -0.995197,0.17546 -1.41574,2.64506 -1.543511,9.06409 -1.588528,10.28058 -1.620131,43.77778 -0.0324,34.36172 -0.167728,37.52456 -1.826406,42.69175 -1.05931,3.30001 -4.285255,6.46221 -6.592489,6.46221 -1.644302,0 -2.316073,-1.23776 -2.053353,-3.78331 0.143018,-1.38568 0.07089,-2.38852 -0.171745,-2.38852 -0.936389,0 -2.135761,1.34055 -3.203866,3.58096 -1.206916,2.53163 -2.575802,3.22584 -4.058927,2.05848 z M 70.086306,85.010852 c 1.359657,-0.796817 2.215856,-1.79977 3.292957,-3.857379 3.261378,-6.230276 3.470684,-6.459901 6.794771,-7.454462 3.549163,-1.061913 5.246397,-2.496153 5.043036,-4.261609 -0.183553,-1.593407 -1.556257,-1.776462 -4.3403,-0.578799 -1.173485,0.504823 -2.890368,0.9177 -3.815265,0.91751 -2.913878,-5.56e-4 -8.955551,-3.403977 -8.955551,-5.044803 0,-0.331307 0.694328,-1.433441 1.542948,-2.44917 1.760827,-2.107567 1.917515,-3.152173 0.661264,-4.408424 -0.702636,-0.702638 -1.469472,-0.881686 -3.776145,-0.881686 -5.497139,0 -6.808518,1.841752 -3.963963,5.56715 1.881302,2.463867 1.654485,3.388566 -1.279322,5.215571 -2.872321,1.788718 -6.644163,2.053603 -9.815526,0.689323 -2.923629,-1.257715 -4.262388,-1.081297 -4.453193,0.586829 -0.207199,1.811395 1.286806,3.168671 4.725228,4.292791 3.494214,1.142357 4.402195,1.907303 6.145903,5.177753 2.056277,3.856682 3.957922,6.249333 5.499897,6.919941 2.170777,0.944088 4.616041,0.786792 6.693261,-0.430536 z M 52.741693,58.687183 c 3.857387,-1.80384 4.343198,-2.477612 4.343198,-6.023564 0,-7.359734 -3.654756,-12.549928 -9.730632,-13.818668 -6.784903,-1.416794 -13.442515,4.467499 -13.942486,12.32298 -0.282355,4.436331 1.168287,6.33511 6.203441,8.119823 3.476382,1.232208 9.828721,0.94157 13.126479,-0.600571 z m 41.597818,-0.155547 c 2.131313,-1.064339 2.839418,-1.70241 3.665506,-3.302972 1.885698,-3.65352 0.648705,-8.987087 -3.00317,-12.948907 -2.251314,-2.442392 -5.002564,-3.580813 -8.600935,-3.558929 -6.295165,0.03829 -10.732743,5.131237 -11.150232,12.796998 -0.19028,3.493684 -0.166768,3.594151 1.207562,5.15942 2.236609,2.547351 5.068009,3.425038 10.607358,3.288092 4.135388,-0.102247 4.915628,-0.256021 7.273911,-1.433702 z M 40.685553,24.722363 c 1.433657,-1.433657 0.137207,-5.713872 -2.543689,-8.398049 -2.304512,-2.307318 -3.539936,-2.684786 -3.539936,-1.081578 0,1.582625 2.941138,8.37891 3.997442,9.237163 1.123764,0.913065 1.385197,0.94345 2.086183,0.242464 z m 50.984722,-1.066981 c 2.287779,-0.877899 6.58667,-11.188438 4.664933,-11.188438 -0.854913,0 -3.741218,2.931964 -5.383501,5.468666 -1.82257,2.815203 -2.150777,4.796635 -0.913847,5.517083 0.943191,0.549355 0.78139,0.529263 1.632415,0.202689 z"
     id="path74" />
  <path
     fill="#a0a0a0"
	  class = "catcolor"
     style="stroke:none;stroke-width:0.44084"
     d="m 138.42876,259.51592 c -2.32117,-0.84963 -4.56274,-3.0787 -4.89914,-4.87179 -0.1981,-1.05604 -0.0168,-1.85612 0.67426,-2.97412 0.96788,-1.56609 1.83934,-1.99626 7.1646,-3.5365 5.52097,-1.5969 6.88737,-7.17391 2.66578,-10.88051 -3.53696,-3.10551 -8.72388,-4.52064 -18.61935,-5.07988 l -5.33403,-0.30144 -0.63695,-1.5244 -0.63693,-1.52441 3.13476,-3.35667 c 1.72412,-1.84617 3.91275,-4.50232 4.86362,-5.90253 l 1.72884,-2.54582 2.73884,0.003 c 5.59072,0.005 15.1103,2.08761 19.41972,4.25128 5.77949,2.90178 10.96851,7.71611 13.31476,12.35338 0.98547,1.94777 1.28827,3.23507 1.43972,6.12069 0.48387,9.21901 -4.55057,16.21905 -13.90543,19.33448 -3.99963,1.33202 -10.11076,1.53541 -13.11307,0.43648 z"
     id="path76" />
  <path
     fill="#a0a0a0"
	  class = "catcolor"
     style="stroke:none;stroke-width:0.44084"
     d="m 63.477108,284.41533 c -6.775129,-0.98547 -13.131496,-4.05678 -17.679242,-8.54231 -3.879725,-3.82665 -4.332737,-4.60455 -3.431098,-5.89182 1.556621,-2.22241 5.637061,-3.36798 13.616016,-3.82273 2.667098,-0.15193 8.519284,-0.67122 13.004853,-1.15381 8.609445,-0.92627 12.430077,-0.84629 16.721321,0.35012 4.140091,1.15429 6.677935,4.88785 5.952149,8.75659 -0.404297,2.15505 -2.529657,5.18651 -4.594178,6.55274 -5.028341,3.32759 -15.28702,4.95892 -23.589821,3.75122 z m 1.576858,-3.00058 c 1.778498,-1.7785 1.778498,-4.02028 0,-5.79877 -1.421717,-1.42172 -2.510098,-1.61123 -3.807024,-0.66289 -0.839023,0.61353 -0.835274,0.64753 0.191938,1.74094 1.141847,1.21546 1.013917,2.45081 -0.262359,2.53344 -0.431922,0.028 -0.983691,0.097 -1.226154,0.15319 -0.242462,0.0565 -0.788006,0.13273 -1.212315,0.1696 -1.131364,0.0984 -0.940793,1.19248 0.390083,2.23935 1.770488,1.39265 4.319511,1.2314 5.925831,-0.37494 z m -8.575804,-4.64591 c 0.136011,-0.35442 -0.06972,-1.27985 -0.457179,-2.05652 -0.627973,-1.25881 -0.632388,-1.49175 -0.0407,-2.14557 0.365069,-0.4034 0.663761,-1.16417 0.663761,-1.69063 0,-1.16822 -1.511129,-1.30523 -2.987809,-0.27091 -0.88677,0.6211 -1.072775,0.6211 -1.959547,0 -1.261966,-0.88394 -2.940971,-0.88043 -3.281442,0.008 -0.146272,0.3812 0.120711,1.22433 0.593293,1.87359 0.79426,1.0912 0.807578,1.27104 0.176046,2.37723 -0.963101,1.68702 -0.183472,2.43845 1.874606,1.8068 1.122661,-0.34457 1.750729,-0.31311 2.545709,0.12743 1.400593,0.77625 2.568949,0.76478 2.873258,-0.0283 z"
     id="path78" />
  <path
     style="fill:#e9afaf;stroke:none;stroke-width:0.44084"
     d="m 64.27593,81.128151 c -1.060001,-1.171072 -4.739779,-7.351957 -4.494672,-7.549656 0.093,-0.07502 1.605082,-0.902491 3.360153,-1.838828 l 3.191042,-1.70243 2.911117,1.522774 c 1.601117,0.837522 3.01151,1.766153 3.134212,2.063622 0.317387,0.769436 -2.890712,7.082861 -3.990512,7.853192 -1.336539,0.936144 -3.082406,0.788087 -4.11134,-0.348674 z"
     id="path80" />
</svg>
